<svg width="134" height="20" viewBox="0 0 134 20" fill="none" xmlns="http://www.w3.org/2000/svg">
<path d="M9.0749 4.98645H27.2247V0H7.56242C3.87985 0 0.854882 2.16802 0.13152 4.98645C0.0657601 5.42005 0 5.79946 0 6.23306C0 6.66667 0.0657601 7.10027 0.13152 7.47968C0.263041 7.91328 0.394561 8.34688 0.591841 8.72629C1.18368 9.7561 1.9728 10.5691 3.02497 11.2195C4.27441 11.9783 5.85265 12.4661 7.56242 12.4661H18.1498C19.0047 12.4661 19.6623 13.0081 19.6623 13.7127C19.6623 14.4173 19.0047 14.9594 18.1498 14.9594H0V19.9458H19.6623C23.3449 19.9458 26.3698 17.7778 27.0932 14.9594C27.1589 14.5799 27.2247 14.1463 27.2247 13.7127C27.2247 13.2791 27.1589 12.8455 27.0932 12.4661C26.9617 12.0325 26.8301 11.5989 26.6329 11.2195C26.1068 10.2439 25.2519 9.37669 24.1997 8.72629C22.9503 7.96748 21.372 7.47968 19.6623 7.47968H9.0749C8.22002 7.47968 7.56242 6.93767 7.56242 6.23306C7.56242 5.52846 8.28578 4.98645 9.0749 4.98645Z" fill="#181818"/>
<path d="M47.3745 0H41.3246C34.617 0 29.2247 4.44444 29.2247 9.9729C29.2247 15.5014 34.617 19.9458 41.3246 19.9458H47.3745C54.082 19.9458 59.4744 15.5014 59.4744 9.9729C59.4744 4.44444 54.082 0 47.3745 0ZM47.3745 14.9594H41.3246C37.9708 14.9594 35.2746 12.7371 35.2746 9.9729C35.2746 7.20867 37.9708 4.98645 41.3246 4.98645H47.3745C50.7283 4.98645 53.4244 7.20867 53.4244 9.9729C53.4244 12.7371 50.7283 14.9594 47.3745 14.9594Z" fill="#181818"/>
<path d="M61.4744 20H67.5243V0C65.1569 1.95122 63.8417 3.03523 61.4744 4.98645V20Z" fill="#181818"/>
<path d="M69.5243 4.98645H78.665V20H84.7149V4.98645V0H75.64L69.5243 4.98645Z" fill="#181818"/>
<path d="M101.84 0H92.7648L86.7149 4.98645H95.7898V20H101.84V4.98645V0Z" fill="#181818"/>
<path d="M122.055 14.9594H115.94C112.586 14.9594 109.89 12.7371 109.89 9.9729C109.89 7.20867 112.586 4.98645 115.94 4.98645H121.99C124.225 4.98645 126.198 6.01626 127.25 7.47968H133.761C132.445 3.19783 127.645 0 122.055 0H115.94C109.232 0 103.84 4.44444 103.84 9.9729C103.84 15.5014 109.232 19.9458 115.94 19.9458H121.99C127.645 19.9458 132.38 16.748 133.695 12.4661H127.185C126.198 13.9837 124.291 14.9594 122.055 14.9594Z" fill="#181818"/>
</svg>
